<mxfile host="app.diagrams.net" modified="2023-05-14T18:30:20.108Z" agent="Mozilla/5.0 (Windows NT 10.0; Win64; x64) AppleWebKit/537.36 (KHTML, like Gecko) Chrome/113.0.0.0 Safari/537.36" etag="w4VzQLeaoEvxZYZ5RHLa" version="21.2.3" type="github">
  <diagram name="Page-1" id="qvfDHYSPvwDKug-459o6">
    <mxGraphModel dx="1050" dy="700" grid="1" gridSize="10" guides="1" tooltips="1" connect="1" arrows="1" fold="1" page="1" pageScale="1" pageWidth="850" pageHeight="1100" math="0" shadow="0">
      <root>
        <mxCell id="0" />
        <mxCell id="1" parent="0" />
        <mxCell id="G5P6n35VssD_gOf5B8MX-24" style="edgeStyle=orthogonalEdgeStyle;rounded=0;orthogonalLoop=1;jettySize=auto;html=1;entryX=0.05;entryY=0.086;entryDx=0;entryDy=0;entryPerimeter=0;" edge="1" parent="1" source="G5P6n35VssD_gOf5B8MX-2" target="G5P6n35VssD_gOf5B8MX-10">
          <mxGeometry relative="1" as="geometry" />
        </mxCell>
        <mxCell id="G5P6n35VssD_gOf5B8MX-25" style="edgeStyle=orthogonalEdgeStyle;rounded=0;orthogonalLoop=1;jettySize=auto;html=1;entryX=0.013;entryY=0.843;entryDx=0;entryDy=0;entryPerimeter=0;" edge="1" parent="1" source="G5P6n35VssD_gOf5B8MX-2" target="G5P6n35VssD_gOf5B8MX-10">
          <mxGeometry relative="1" as="geometry" />
        </mxCell>
        <mxCell id="G5P6n35VssD_gOf5B8MX-2" value="Data Cataloging" style="swimlane;whiteSpace=wrap;html=1;" vertex="1" parent="1">
          <mxGeometry x="240" y="40" width="170" height="120" as="geometry" />
        </mxCell>
        <mxCell id="G5P6n35VssD_gOf5B8MX-3" value="&lt;ul&gt;&lt;li&gt;Data indexing&lt;/li&gt;&lt;li&gt;Data aggregation&lt;/li&gt;&lt;li&gt;Data search&lt;/li&gt;&lt;li&gt;Data retrieval&lt;/li&gt;&lt;/ul&gt;" style="text;html=1;align=left;verticalAlign=middle;resizable=0;points=[];autosize=1;strokeColor=none;fillColor=none;" vertex="1" parent="G5P6n35VssD_gOf5B8MX-2">
          <mxGeometry y="20" width="160" height="100" as="geometry" />
        </mxCell>
        <mxCell id="G5P6n35VssD_gOf5B8MX-11" style="edgeStyle=orthogonalEdgeStyle;rounded=0;orthogonalLoop=1;jettySize=auto;html=1;entryX=0.437;entryY=-0.033;entryDx=0;entryDy=0;entryPerimeter=0;" edge="1" parent="1" source="G5P6n35VssD_gOf5B8MX-3" target="G5P6n35VssD_gOf5B8MX-7">
          <mxGeometry relative="1" as="geometry" />
        </mxCell>
        <mxCell id="G5P6n35VssD_gOf5B8MX-12" value="" style="edgeStyle=orthogonalEdgeStyle;rounded=0;orthogonalLoop=1;jettySize=auto;html=1;entryX=0.5;entryY=0;entryDx=0;entryDy=0;" edge="1" parent="1" source="G5P6n35VssD_gOf5B8MX-4" target="G5P6n35VssD_gOf5B8MX-9">
          <mxGeometry relative="1" as="geometry" />
        </mxCell>
        <mxCell id="G5P6n35VssD_gOf5B8MX-26" style="edgeStyle=orthogonalEdgeStyle;rounded=0;orthogonalLoop=1;jettySize=auto;html=1;entryX=0.488;entryY=1.057;entryDx=0;entryDy=0;entryPerimeter=0;exitX=1.02;exitY=0.2;exitDx=0;exitDy=0;exitPerimeter=0;" edge="1" parent="1" source="G5P6n35VssD_gOf5B8MX-5" target="G5P6n35VssD_gOf5B8MX-10">
          <mxGeometry relative="1" as="geometry">
            <Array as="points">
              <mxPoint x="655" y="240" />
              <mxPoint x="706" y="240" />
            </Array>
          </mxGeometry>
        </mxCell>
        <mxCell id="G5P6n35VssD_gOf5B8MX-28" style="edgeStyle=orthogonalEdgeStyle;rounded=0;orthogonalLoop=1;jettySize=auto;html=1;" edge="1" parent="1" source="G5P6n35VssD_gOf5B8MX-4">
          <mxGeometry relative="1" as="geometry">
            <mxPoint x="840" y="170" as="targetPoint" />
            <Array as="points">
              <mxPoint x="841" y="240" />
            </Array>
          </mxGeometry>
        </mxCell>
        <mxCell id="G5P6n35VssD_gOf5B8MX-4" value="In-Memory Database" style="swimlane;whiteSpace=wrap;html=1;" vertex="1" parent="1">
          <mxGeometry x="410" y="200" width="240" height="150" as="geometry" />
        </mxCell>
        <mxCell id="G5P6n35VssD_gOf5B8MX-5" value="&lt;ul&gt;&lt;li&gt;Cache for frequently&amp;nbsp;&lt;span style=&quot;&quot;&gt;accessed data&lt;br&gt;&lt;/span&gt;&lt;/li&gt;&lt;li&gt;&lt;span style=&quot;&quot;&gt;High-speed access&lt;/span&gt;&lt;/li&gt;&lt;li&gt;&lt;span style=&quot;&quot;&gt;Reduced latency&lt;/span&gt;&lt;/li&gt;&lt;/ul&gt;" style="text;html=1;align=left;verticalAlign=middle;resizable=0;points=[];autosize=1;strokeColor=none;fillColor=none;" vertex="1" parent="G5P6n35VssD_gOf5B8MX-4">
          <mxGeometry x="-10" y="45" width="250" height="80" as="geometry" />
        </mxCell>
        <mxCell id="G5P6n35VssD_gOf5B8MX-7" value="AI-enabled Robot" style="swimlane;whiteSpace=wrap;html=1;" vertex="1" parent="1">
          <mxGeometry x="40" y="230" width="190" height="120" as="geometry" />
        </mxCell>
        <mxCell id="G5P6n35VssD_gOf5B8MX-8" value="&lt;div style=&quot;text-align: left;&quot;&gt;&lt;ul&gt;&lt;li&gt;&lt;span style=&quot;background-color: initial;&quot;&gt;Accessing data&lt;/span&gt;&lt;/li&gt;&lt;li&gt;&lt;span style=&quot;background-color: initial;&quot;&gt;Making decisions&lt;/span&gt;&lt;/li&gt;&lt;li&gt;&lt;span style=&quot;background-color: initial;&quot;&gt;Processing data&lt;/span&gt;&lt;/li&gt;&lt;li&gt;&lt;span style=&quot;background-color: initial;&quot;&gt;Learning algorithms&lt;/span&gt;&lt;/li&gt;&lt;/ul&gt;&lt;/div&gt;" style="text;html=1;align=center;verticalAlign=middle;resizable=0;points=[];autosize=1;strokeColor=none;fillColor=none;" vertex="1" parent="G5P6n35VssD_gOf5B8MX-7">
          <mxGeometry x="10" y="20" width="170" height="100" as="geometry" />
        </mxCell>
        <mxCell id="G5P6n35VssD_gOf5B8MX-17" style="edgeStyle=orthogonalEdgeStyle;rounded=0;orthogonalLoop=1;jettySize=auto;html=1;entryX=0.105;entryY=-0.083;entryDx=0;entryDy=0;entryPerimeter=0;" edge="1" parent="1" source="G5P6n35VssD_gOf5B8MX-9" target="G5P6n35VssD_gOf5B8MX-7">
          <mxGeometry relative="1" as="geometry">
            <mxPoint x="70" y="150" as="targetPoint" />
            <Array as="points">
              <mxPoint x="735" y="10" />
              <mxPoint x="20" y="10" />
              <mxPoint x="20" y="160" />
              <mxPoint x="60" y="160" />
            </Array>
          </mxGeometry>
        </mxCell>
        <mxCell id="G5P6n35VssD_gOf5B8MX-9" value="Scattered Databases" style="swimlane;whiteSpace=wrap;html=1;" vertex="1" parent="1">
          <mxGeometry x="570" y="75" width="330" height="75" as="geometry" />
        </mxCell>
        <mxCell id="G5P6n35VssD_gOf5B8MX-16" value="" style="shape=flexArrow;endArrow=classic;startArrow=classic;html=1;rounded=0;exitX=1;exitY=0.5;exitDx=0;exitDy=0;" edge="1" parent="1" source="G5P6n35VssD_gOf5B8MX-7">
          <mxGeometry width="100" height="100" relative="1" as="geometry">
            <mxPoint x="380" y="380" as="sourcePoint" />
            <mxPoint x="410" y="290" as="targetPoint" />
          </mxGeometry>
        </mxCell>
        <mxCell id="G5P6n35VssD_gOf5B8MX-10" value="&lt;ul&gt;&lt;li&gt;Struuctured, u&lt;span style=&quot;&quot;&gt;nstructured, and&lt;/span&gt;&lt;span style=&quot;&quot;&gt;&amp;nbsp; graph databases&lt;br&gt;&lt;/span&gt;&lt;/li&gt;&lt;li&gt;&lt;span style=&quot;&quot;&gt;Geographically&amp;nbsp;&amp;nbsp;&lt;/span&gt;&lt;span style=&quot;&quot;&gt;distributed&lt;/span&gt;&lt;/li&gt;&lt;/ul&gt;" style="text;html=1;align=left;verticalAlign=middle;resizable=0;points=[];autosize=1;strokeColor=none;fillColor=none;" vertex="1" parent="1">
          <mxGeometry x="550" y="90" width="320" height="70" as="geometry" />
        </mxCell>
        <mxCell id="G5P6n35VssD_gOf5B8MX-23" style="edgeStyle=orthogonalEdgeStyle;rounded=0;orthogonalLoop=1;jettySize=auto;html=1;" edge="1" parent="1" source="G5P6n35VssD_gOf5B8MX-3" target="G5P6n35VssD_gOf5B8MX-10">
          <mxGeometry relative="1" as="geometry" />
        </mxCell>
        <mxCell id="G5P6n35VssD_gOf5B8MX-27" style="edgeStyle=orthogonalEdgeStyle;rounded=0;orthogonalLoop=1;jettySize=auto;html=1;entryX=0.638;entryY=1.043;entryDx=0;entryDy=0;entryPerimeter=0;exitX=1.004;exitY=-0.062;exitDx=0;exitDy=0;exitPerimeter=0;" edge="1" parent="1" source="G5P6n35VssD_gOf5B8MX-5" target="G5P6n35VssD_gOf5B8MX-10">
          <mxGeometry relative="1" as="geometry" />
        </mxCell>
      </root>
    </mxGraphModel>
  </diagram>
</mxfile>
